<svg xmlns="http://www.w3.org/2000/svg" viewBox="0 0 96 96"><g id="icon"><path d="M19.35,43.74A.76.76,0,0,1,18.6,43V26H12.47v9.26a.75.75,0,0,1-1.5,0v-10a.75.75,0,0,1,.75-.75h7.63a.75.75,0,0,1,.75.75V43A.76.76,0,0,1,19.35,43.74Z"/><path d="M11.72,43.74A.76.76,0,0,1,11,43V39.33a.75.75,0,0,1,1.5,0V43A.76.76,0,0,1,11.72,43.74Z"/><path d="M22.65,26H8.42A3,3,0,0,1,6,21.22l7.1-9.93A3,3,0,0,1,15.52,10h0A3,3,0,0,1,18,11.29l7.12,9.93A3,3,0,0,1,22.65,26ZM15.52,11.54h0a1.49,1.49,0,0,0-1.22.63L7.2,22.1a1.47,1.47,0,0,0-.12,1.55,1.5,1.5,0,0,0,1.34.82H22.65a1.5,1.5,0,0,0,1.21-2.38l-7.12-9.93A1.51,1.51,0,0,0,15.52,11.54Z"/><path d="M84.29,56.28a.74.74,0,0,1-.75-.75V23.26H77.4V46.43a.75.75,0,1,1-1.5,0V22.51a.76.76,0,0,1,.75-.75h7.64a.76.76,0,0,1,.75.75v33A.75.75,0,0,1,84.29,56.28Z"/><path d="M87.58,23.26H73.35a3,3,0,0,1-2.44-4.74L78,8.59a2.93,2.93,0,0,1,2.43-1.26h0a3,3,0,0,1,2.43,1.25L90,18.52a3,3,0,0,1-2.44,4.74ZM80.46,8.83h0a1.46,1.46,0,0,0-1.21.63l-7.11,9.93A1.49,1.49,0,0,0,72,21a1.47,1.47,0,0,0,1.33.81H87.58a1.49,1.49,0,0,0,1.22-2.37L81.67,9.46A1.47,1.47,0,0,0,80.46,8.83Z"/><path d="M49.49,93.75H45.81a1.89,1.89,0,0,1-1.89-1.89V89a13,13,0,0,1-5.41-3.11l-2.43,1.4a1.88,1.88,0,0,1-2.58-.7l-1.84-3.16a1.9,1.9,0,0,1,.69-2.58l2.44-1.4a13.42,13.42,0,0,1,0-6.26l-2.43-1.4a1.84,1.84,0,0,1-.88-1.14,1.93,1.93,0,0,1,.17-1.43l1.86-3.2a1.89,1.89,0,0,1,2.57-.69l2.44,1.42a13.17,13.17,0,0,1,5.4-3.12V60.86A1.89,1.89,0,0,1,45.81,59h3.68a1.88,1.88,0,0,1,1.87,1.89v2.81a13.18,13.18,0,0,1,5.42,3.12l2.44-1.41a1.9,1.9,0,0,1,2.57.67l1.84,3.2a1.91,1.91,0,0,1-.7,2.58l-2.43,1.4a13.42,13.42,0,0,1,0,6.26l2.43,1.4a1.9,1.9,0,0,1,.7,2.57l-1.84,3.18a1.88,1.88,0,0,1-1.16.89,1.86,1.86,0,0,1-1.42-.21l-2.43-1.4a13.11,13.11,0,0,1-5.42,3.14v2.8A1.88,1.88,0,0,1,49.49,93.75ZM38.63,84.24a.74.74,0,0,1,.54.23,11.48,11.48,0,0,0,5.68,3.26.75.75,0,0,1,.57.73v3.4a.38.38,0,0,0,.39.39h3.68a.38.38,0,0,0,.37-.39V88.48a.75.75,0,0,1,.57-.73,11.59,11.59,0,0,0,5.68-3.28.74.74,0,0,1,.92-.13L60,86a.39.39,0,0,0,.28,0,.47.47,0,0,0,.25-.19l1.83-3.17a.4.4,0,0,0-.14-.53h0L59.25,80.5a.76.76,0,0,1-.35-.86,11.68,11.68,0,0,0,0-6.56.76.76,0,0,1,.35-.86l2.94-1.69a.4.4,0,0,0,.13-.54L60.5,66.81a.41.41,0,0,0-.54-.13L57,68.38a.74.74,0,0,1-.92-.13A11.63,11.63,0,0,0,50.43,65a.75.75,0,0,1-.57-.73V60.86a.38.38,0,0,0-.37-.39H45.81a.38.38,0,0,0-.39.39v3.38a.74.74,0,0,1-.57.73,11.66,11.66,0,0,0-5.66,3.28.74.74,0,0,1-.92.13l-2.94-1.71a.4.4,0,0,0-.52.14L33,70a.36.36,0,0,0,0,.29.33.33,0,0,0,.17.23L36,72.22a.76.76,0,0,1,.35.85,11.75,11.75,0,0,0,0,6.58.76.76,0,0,1-.35.85L33.1,82.19a.4.4,0,0,0-.13.54l1.83,3.16a.42.42,0,0,0,.24.19.38.38,0,0,0,.28,0l2.93-1.7A.75.75,0,0,1,38.63,84.24Zm9-1.5A6.38,6.38,0,1,1,54,76.36,6.38,6.38,0,0,1,47.64,82.74Zm0-11.26a4.88,4.88,0,1,0,4.89,4.88A4.89,4.89,0,0,0,47.64,71.48Z"/><path d="M46.87,45.45a12.93,12.93,0,0,1-5.27-1.09,18,18,0,0,1-6.25-4.59,6.85,6.85,0,0,1-1.76-3.39c-.13-.78-.21-1.36-.24-1.8-.6-.17-1.31-.73-1.84-2.26-.79-2.25-1.68-5.42-.32-6.93a2.63,2.63,0,0,1,2.22-.78,9.86,9.86,0,0,1,2.39-6,9.2,9.2,0,0,1,7-2.67c4.78.34,10.47.48,12.6-1.46a.75.75,0,0,1,1,0,14.62,14.62,0,0,1,4.27,10.24,3.11,3.11,0,0,1,2.2.83c.79.81,1,2.09.56,3.81l-.07.34c-.36,1.91-.76,4.06-2,4.78a1.67,1.67,0,0,1-.4.16c0,.14,0,.29,0,.45a6.48,6.48,0,0,1-1.31,3.67A15.88,15.88,0,0,1,46.87,45.45Zm-12-11.31a11.25,11.25,0,0,0,.23,1.9v.11a5.37,5.37,0,0,0,1.42,2.64A16.29,16.29,0,0,0,42.2,43c5.43,2.41,12.38.2,16.17-5.14a5.07,5.07,0,0,0,1-2.8,4.17,4.17,0,0,0,0-.76.77.77,0,0,1-.11-.72.75.75,0,0,1,1-.44h0c.21.07.29,0,.34,0,.65-.37,1.05-2.48,1.29-3.74l.07-.39c.21-.85.34-1.92-.16-2.44A2.1,2.1,0,0,0,60,26.22a.73.73,0,0,1-.63-.16.71.71,0,0,1-.27-.59A13.85,13.85,0,0,0,55.79,16C53,17.85,47.66,17.76,42.7,17.4a7.68,7.68,0,0,0-5.79,2.19,8.76,8.76,0,0,0-2,5.85.74.74,0,0,1-.26.62.77.77,0,0,1-.65.16c-.58-.14-1.34-.21-1.68.17s-.73,1.6.61,5.43c.41,1.16.83,1.34.9,1.32a.75.75,0,0,1,.7,0,.73.73,0,0,1,.38.65A.71.71,0,0,1,34.83,34.14Zm24.85.38Zm-25.16-.05h0l.11-.07Zm-.7-1.32-.11.06.07,0A.05.05,0,0,1,33.82,33.15Z"/><path d="M61.67,26.36h-.1a.75.75,0,0,1-.65-.84c.19-1.53,1.75-4,2.23-4.73C63.47,9.25,58,7.94,57.78,7.89a.72.72,0,0,1-.38-.21C50.84,1,39.31,4.64,35.75,6l.5.45a.75.75,0,0,1,.25.59.77.77,0,0,1-.3.57c-5.71,4.29-5.45,11.63-5.34,13a13.18,13.18,0,0,1,2,4.83.75.75,0,1,1-1.47.31c-.18-.89-.86-3.4-1.75-4.29a.79.79,0,0,1-.21-.43c-.05-.37-1-8.75,5.2-14.07l-.73-.65a.74.74,0,0,1-.24-.67.75.75,0,0,1,.43-.57c.64-.3,15.73-7.12,24.27,1.39,1.26.38,6.72,2.71,6.33,14.57a.79.79,0,0,1-.13.39,14.81,14.81,0,0,0-2.11,4.27A.74.74,0,0,1,61.67,26.36Z"/><path d="M39.7,59l-.19,0a.77.77,0,0,1-.49-.41L33.54,46.79a.76.76,0,0,1,.32-1l2.8-1.55V40.78a.75.75,0,0,1,1.5,0v3.59l9.32,8.09a.73.73,0,0,1,.26.6.75.75,0,0,1-.31.57l-7.29,5.23A.77.77,0,0,1,39.7,59ZM35.2,46.79,40,57.11,45.78,53l-8.47-7.35Z"/><path d="M54.28,59a.79.79,0,0,1-.44-.14l-7.29-5.23a.75.75,0,0,1-.31-.57.76.76,0,0,1,.26-.6l9.32-8.09V40.93a.75.75,0,0,1,1.5,0v3.34l2.8,1.55a.75.75,0,0,1,.32,1L55,58.57a.75.75,0,0,1-.49.41ZM48.2,53,54,57.11l4.8-10.32-2.11-1.17Z"/><path d="M16.21,65.47a.75.75,0,0,1-.75-.75v-9c0-2.66,2-5,5-5.72l13.87-3.54a.75.75,0,1,1,.37,1.45L20.85,51.41C18.52,52,17,53.72,17,55.68v9A.76.76,0,0,1,16.21,65.47Z"/><path d="M77.77,65.47a.76.76,0,0,1-.75-.75v-9c0-2-1.56-3.68-3.89-4.27L59.26,47.87a.75.75,0,1,1,.37-1.45L73.5,50c3,.76,5,3.06,5,5.72v9A.75.75,0,0,1,77.77,65.47Z"/></g></svg>